<?xml version="1.0" encoding="utf-8"?>
<svg version="1.1" xmlns:xlink="http://www.w3.org/1999/xlink" width="12px" height="12px" viewBox="242 309.5  12 12" xmlns="http://www.w3.org/2000/svg">
  <path d="M 248 309.5  C 251.36 309.5  254 312.14  254 315.5  C 254 318.86  251.36 321.5  248 321.5  C 244.64 321.5  242 318.86  242 315.5  C 242 312.14  244.64 309.5  248 309.5  Z " fill-rule="nonzero" fill="#f0f0f0" stroke="none" />
  <path d="M 248 310  C 251.08 310  253.5 312.42  253.5 315.5  C 253.5 318.58  251.08 321  248 321  C 244.92 321  242.5 318.58  242.5 315.5  C 242.5 312.42  244.92 310  248 310  Z " stroke-width="1" stroke="#797979" fill="none" />
  <path d="M 248 318.5  C 246.32 318.5  245 317.18  245 315.5  C 245 313.82  246.32 312.5  248 312.5  C 249.68 312.5  251 313.82  251 315.5  C 251 317.18  249.68 318.5  248 318.5  " fill-rule="nonzero" fill="#797979" stroke="none" />
</svg>