<?xml version="1.0" encoding="utf-8"?>
<svg version="1.1" xmlns:xlink="http://www.w3.org/1999/xlink" width="12px" height="12px" viewBox="149 309.5  12 12" xmlns="http://www.w3.org/2000/svg">
  <path d="M 155 309.5  C 158.36 309.5  161 312.14  161 315.5  C 161 318.86  158.36 321.5  155 321.5  C 151.64 321.5  149 318.86  149 315.5  C 149 312.14  151.64 309.5  155 309.5  Z " fill-rule="nonzero" fill="#ffffff" stroke="none" />
  <path d="M 155 310  C 158.08 310  160.5 312.42  160.5 315.5  C 160.5 318.58  158.08 321  155 321  C 151.92 321  149.5 318.58  149.5 315.5  C 149.5 312.42  151.92 310  155 310  Z " stroke-width="1" stroke="#797979" fill="none" />
  <path d="M 155 318.5  C 153.32 318.5  152 317.18  152 315.5  C 152 313.82  153.32 312.5  155 312.5  C 156.68 312.5  158 313.82  158 315.5  C 158 317.18  156.68 318.5  155 318.5  " fill-rule="nonzero" fill="#797979" stroke="none" />
</svg>