<?xml version="1.0" encoding="utf-8"?>
<svg version="1.1" xmlns:xlink="http://www.w3.org/1999/xlink" width="12px" height="12px" viewBox="427 309.5  12 12" xmlns="http://www.w3.org/2000/svg">
  <path d="M 433 309.5  C 436.36 309.5  439 312.14  439 315.5  C 439 318.86  436.36 321.5  433 321.5  C 429.64 321.5  427 318.86  427 315.5  C 427 312.14  429.64 309.5  433 309.5  Z " fill-rule="nonzero" fill="#ffffff" stroke="none" />
  <path d="M 433 310  C 436.08 310  438.5 312.42  438.5 315.5  C 438.5 318.58  436.08 321  433 321  C 429.92 321  427.5 318.58  427.5 315.5  C 427.5 312.42  429.92 310  433 310  Z " stroke-width="1" stroke="#797979" fill="none" />
  <path d="M 433 318.5  C 431.32 318.5  430 317.18  430 315.5  C 430 313.82  431.32 312.5  433 312.5  C 434.68 312.5  436 313.82  436 315.5  C 436 317.18  434.68 318.5  433 318.5  " fill-rule="nonzero" fill="#797979" stroke="none" />
</svg>