<?xml version="1.0" encoding="utf-8"?>
<svg version="1.1" xmlns:xlink="http://www.w3.org/1999/xlink" width="194px" height="31px" xmlns="http://www.w3.org/2000/svg">
  <defs>
    <mask fill="white" id="clip12">
      <path d="M 0 28  L 0 15.3404255319149  L 0 3  C 0 1.32  1.32000000000005 0  3 0  L 194 0  L 194 31  L 3 31  C 1.32000000000005 31  0 29.68  0 28  Z " fill-rule="evenodd" />
    </mask>
  </defs>
  <g transform="matrix(1 0 0 1 -651 -45 )">
    <path d="M 0 28  L 0 15.3404255319149  L 0 3  C 0 1.32  1.32000000000005 0  3 0  L 194 0  L 194 31  L 3 31  C 1.32000000000005 31  0 29.68  0 28  Z " fill-rule="nonzero" fill="#f2f2f2" stroke="none" transform="matrix(1 0 0 1 651 45 )" />
    <path d="M 0 28  L 0 15.3404255319149  L 0 3  C 0 1.32  1.32000000000005 0  3 0  L 194 0  L 194 31  L 3 31  C 1.32000000000005 31  0 29.68  0 28  Z " stroke-width="2" stroke="#aaaaaa" fill="none" transform="matrix(1 0 0 1 651 45 )" mask="url(#clip12)" />
  </g>
</svg>