<?xml version="1.0" encoding="utf-8"?>
<svg version="1.1" xmlns:xlink="http://www.w3.org/1999/xlink" width="300px" height="170px" xmlns="http://www.w3.org/2000/svg">
  <g transform="matrix(1 0 0 1 -140 -78 )">
    <path d="M 141 80  A 1 1 0 0 1 142 79 L 438 79  A 1 1 0 0 1 439 80 L 439 246  A 1 1 0 0 1 438 247 L 142 247  A 1 1 0 0 1 141 246 L 141 80  Z " fill-rule="nonzero" fill="#ffffff" stroke="none" />
    <path d="M 140.5 80  A 1.5 1.5 0 0 1 142 78.5 L 438 78.5  A 1.5 1.5 0 0 1 439.5 80 L 439.5 246  A 1.5 1.5 0 0 1 438 247.5 L 142 247.5  A 1.5 1.5 0 0 1 140.5 246 L 140.5 80  Z " stroke-width="1" stroke-dasharray="9,4" stroke="#aaaaaa" fill="none" stroke-dashoffset="0.5" />
  </g>
</svg>