<?xml version="1.0" encoding="utf-8"?>
<svg version="1.1" xmlns:xlink="http://www.w3.org/1999/xlink" width="12px" height="12px" viewBox="140 574.5  12 12" xmlns="http://www.w3.org/2000/svg">
  <path d="M 146 574.5  C 149.36 574.5  152 577.14  152 580.5  C 152 583.86  149.36 586.5  146 586.5  C 142.64 586.5  140 583.86  140 580.5  C 140 577.14  142.64 574.5  146 574.5  Z " fill-rule="nonzero" fill="#f0f0f0" stroke="none" />
  <path d="M 146 575  C 149.08 575  151.5 577.42  151.5 580.5  C 151.5 583.58  149.08 586  146 586  C 142.92 586  140.5 583.58  140.5 580.5  C 140.5 577.42  142.92 575  146 575  Z " stroke-width="1" stroke="#797979" fill="none" />
  <path d="M 146 583.5  C 144.32 583.5  143 582.18  143 580.5  C 143 578.82  144.32 577.5  146 577.5  C 147.68 577.5  149 578.82  149 580.5  C 149 582.18  147.68 583.5  146 583.5  " fill-rule="nonzero" fill="#797979" stroke="none" />
</svg>