<?xml version="1.0" encoding="utf-8"?>
<svg version="1.1" xmlns:xlink="http://www.w3.org/1999/xlink" width="12px" height="12px" viewBox="204 574.5  12 12" xmlns="http://www.w3.org/2000/svg">
  <path d="M 210 574.5  C 213.36 574.5  216 577.14  216 580.5  C 216 583.86  213.36 586.5  210 586.5  C 206.64 586.5  204 583.86  204 580.5  C 204 577.14  206.64 574.5  210 574.5  Z " fill-rule="nonzero" fill="#ffffff" stroke="none" />
  <path d="M 210 575  C 213.08 575  215.5 577.42  215.5 580.5  C 215.5 583.58  213.08 586  210 586  C 206.92 586  204.5 583.58  204.5 580.5  C 204.5 577.42  206.92 575  210 575  Z " stroke-width="1" stroke="#797979" fill="none" />
  <path d="M 210 583.5  C 208.32 583.5  207 582.18  207 580.5  C 207 578.82  208.32 577.5  210 577.5  C 211.68 577.5  213 578.82  213 580.5  C 213 582.18  211.68 583.5  210 583.5  " fill-rule="nonzero" fill="#797979" stroke="none" />
</svg>