<?xml version="1.0" encoding="utf-8"?>
<svg version="1.1" xmlns:xlink="http://www.w3.org/1999/xlink" width="12px" height="12px" viewBox="267 574.5  12 12" xmlns="http://www.w3.org/2000/svg">
  <path d="M 273 574.5  C 276.36 574.5  279 577.14  279 580.5  C 279 583.86  276.36 586.5  273 586.5  C 269.64 586.5  267 583.86  267 580.5  C 267 577.14  269.64 574.5  273 574.5  Z " fill-rule="nonzero" fill="#ffffff" stroke="none" />
  <path d="M 273 575  C 276.08 575  278.5 577.42  278.5 580.5  C 278.5 583.58  276.08 586  273 586  C 269.92 586  267.5 583.58  267.5 580.5  C 267.5 577.42  269.92 575  273 575  Z " stroke-width="1" stroke="#797979" fill="none" />
  <path d="M 273 583.5  C 271.32 583.5  270 582.18  270 580.5  C 270 578.82  271.32 577.5  273 577.5  C 274.68 577.5  276 578.82  276 580.5  C 276 582.18  274.68 583.5  273 583.5  " fill-rule="nonzero" fill="#797979" stroke="none" />
</svg>