<?xml version="1.0" encoding="utf-8"?>
<svg version="1.1" xmlns:xlink="http://www.w3.org/1999/xlink" width="12px" height="12px" viewBox="521 574.5  12 12" xmlns="http://www.w3.org/2000/svg">
  <path d="M 527 574.5  C 530.36 574.5  533 577.14  533 580.5  C 533 583.86  530.36 586.5  527 586.5  C 523.64 586.5  521 583.86  521 580.5  C 521 577.14  523.64 574.5  527 574.5  Z " fill-rule="nonzero" fill="#f0f0f0" stroke="none" />
  <path d="M 527 575  C 530.08 575  532.5 577.42  532.5 580.5  C 532.5 583.58  530.08 586  527 586  C 523.92 586  521.5 583.58  521.5 580.5  C 521.5 577.42  523.92 575  527 575  Z " stroke-width="1" stroke="#797979" fill="none" />
  <path d="M 527 583.5  C 525.32 583.5  524 582.18  524 580.5  C 524 578.82  525.32 577.5  527 577.5  C 528.68 577.5  530 578.82  530 580.5  C 530 582.18  528.68 583.5  527 583.5  " fill-rule="nonzero" fill="#797979" stroke="none" />
</svg>