<?xml version="1.0" encoding="utf-8"?>
<svg version="1.1" xmlns:xlink="http://www.w3.org/1999/xlink" width="12px" height="12px" viewBox="585 574.5  12 12" xmlns="http://www.w3.org/2000/svg">
  <path d="M 591 574.5  C 594.36 574.5  597 577.14  597 580.5  C 597 583.86  594.36 586.5  591 586.5  C 587.64 586.5  585 583.86  585 580.5  C 585 577.14  587.64 574.5  591 574.5  Z " fill-rule="nonzero" fill="#ffffff" stroke="none" />
  <path d="M 591 575  C 594.08 575  596.5 577.42  596.5 580.5  C 596.5 583.58  594.08 586  591 586  C 587.92 586  585.5 583.58  585.5 580.5  C 585.5 577.42  587.92 575  591 575  Z " stroke-width="1" stroke="#797979" fill="none" />
  <path d="M 591 583.5  C 589.32 583.5  588 582.18  588 580.5  C 588 578.82  589.32 577.5  591 577.5  C 592.68 577.5  594 578.82  594 580.5  C 594 582.18  592.68 583.5  591 583.5  " fill-rule="nonzero" fill="#797979" stroke="none" />
</svg>