<?xml version="1.0" encoding="utf-8"?>
<svg version="1.1" xmlns:xlink="http://www.w3.org/1999/xlink" width="12px" height="12px" viewBox="331 604.5  12 12" xmlns="http://www.w3.org/2000/svg">
  <path d="M 337 604.5  C 340.36 604.5  343 607.14  343 610.5  C 343 613.86  340.36 616.5  337 616.5  C 333.64 616.5  331 613.86  331 610.5  C 331 607.14  333.64 604.5  337 604.5  Z " fill-rule="nonzero" fill="#ffffff" stroke="none" />
  <path d="M 337 605  C 340.08 605  342.5 607.42  342.5 610.5  C 342.5 613.58  340.08 616  337 616  C 333.92 616  331.5 613.58  331.5 610.5  C 331.5 607.42  333.92 605  337 605  Z " stroke-width="1" stroke="#797979" fill="none" />
  <path d="M 337 613.5  C 335.32 613.5  334 612.18  334 610.5  C 334 608.82  335.32 607.5  337 607.5  C 338.68 607.5  340 608.82  340 610.5  C 340 612.18  338.68 613.5  337 613.5  " fill-rule="nonzero" fill="#797979" stroke="none" />
</svg>