<?xml version="1.0" encoding="utf-8"?>
<svg version="1.1" xmlns:xlink="http://www.w3.org/1999/xlink" width="12px" height="12px" viewBox="394 604.5  12 12" xmlns="http://www.w3.org/2000/svg">
  <path d="M 400 604.5  C 403.36 604.5  406 607.14  406 610.5  C 406 613.86  403.36 616.5  400 616.5  C 396.64 616.5  394 613.86  394 610.5  C 394 607.14  396.64 604.5  400 604.5  Z " fill-rule="nonzero" fill="#ffffff" stroke="none" />
  <path d="M 400 605  C 403.08 605  405.5 607.42  405.5 610.5  C 405.5 613.58  403.08 616  400 616  C 396.92 616  394.5 613.58  394.5 610.5  C 394.5 607.42  396.92 605  400 605  Z " stroke-width="1" stroke="#797979" fill="none" />
  <path d="M 400 613.5  C 398.32 613.5  397 612.18  397 610.5  C 397 608.82  398.32 607.5  400 607.5  C 401.68 607.5  403 608.82  403 610.5  C 403 612.18  401.68 613.5  400 613.5  " fill-rule="nonzero" fill="#797979" stroke="none" />
</svg>