<?xml version="1.0" encoding="utf-8"?>
<svg version="1.1" xmlns:xlink="http://www.w3.org/1999/xlink" width="12px" height="12px" viewBox="458 604.5  12 12" xmlns="http://www.w3.org/2000/svg">
  <path d="M 464 604.5  C 467.36 604.5  470 607.14  470 610.5  C 470 613.86  467.36 616.5  464 616.5  C 460.64 616.5  458 613.86  458 610.5  C 458 607.14  460.64 604.5  464 604.5  Z " fill-rule="nonzero" fill="#f0f0f0" stroke="none" />
  <path d="M 464 605  C 467.08 605  469.5 607.42  469.5 610.5  C 469.5 613.58  467.08 616  464 616  C 460.92 616  458.5 613.58  458.5 610.5  C 458.5 607.42  460.92 605  464 605  Z " stroke-width="1" stroke="#797979" fill="none" />
  <path d="M 464 613.5  C 462.32 613.5  461 612.18  461 610.5  C 461 608.82  462.32 607.5  464 607.5  C 465.68 607.5  467 608.82  467 610.5  C 467 612.18  465.68 613.5  464 613.5  " fill-rule="nonzero" fill="#797979" stroke="none" />
</svg>