<?xml version="1.0" encoding="utf-8"?>
<svg version="1.1" xmlns:xlink="http://www.w3.org/1999/xlink" width="12px" height="12px" viewBox="521 604.5  12 12" xmlns="http://www.w3.org/2000/svg">
  <path d="M 527 604.5  C 530.36 604.5  533 607.14  533 610.5  C 533 613.86  530.36 616.5  527 616.5  C 523.64 616.5  521 613.86  521 610.5  C 521 607.14  523.64 604.5  527 604.5  Z " fill-rule="nonzero" fill="#ffffff" stroke="none" />
  <path d="M 527 605  C 530.08 605  532.5 607.42  532.5 610.5  C 532.5 613.58  530.08 616  527 616  C 523.92 616  521.5 613.58  521.5 610.5  C 521.5 607.42  523.92 605  527 605  Z " stroke-width="1" stroke="#797979" fill="none" />
  <path d="M 527 613.5  C 525.32 613.5  524 612.18  524 610.5  C 524 608.82  525.32 607.5  527 607.5  C 528.68 607.5  530 608.82  530 610.5  C 530 612.18  528.68 613.5  527 613.5  " fill-rule="nonzero" fill="#797979" stroke="none" />
</svg>