<?xml version="1.0" encoding="utf-8"?>
<svg version="1.1" xmlns:xlink="http://www.w3.org/1999/xlink" width="12px" height="12px" viewBox="585 604.5  12 12" xmlns="http://www.w3.org/2000/svg">
  <path d="M 591 604.5  C 594.36 604.5  597 607.14  597 610.5  C 597 613.86  594.36 616.5  591 616.5  C 587.64 616.5  585 613.86  585 610.5  C 585 607.14  587.64 604.5  591 604.5  Z " fill-rule="nonzero" fill="#f0f0f0" stroke="none" />
  <path d="M 591 605  C 594.08 605  596.5 607.42  596.5 610.5  C 596.5 613.58  594.08 616  591 616  C 587.92 616  585.5 613.58  585.5 610.5  C 585.5 607.42  587.92 605  591 605  Z " stroke-width="1" stroke="#797979" fill="none" />
  <path d="M 591 613.5  C 589.32 613.5  588 612.18  588 610.5  C 588 608.82  589.32 607.5  591 607.5  C 592.68 607.5  594 608.82  594 610.5  C 594 612.18  592.68 613.5  591 613.5  " fill-rule="nonzero" fill="#797979" stroke="none" />
</svg>