<?xml version="1.0" encoding="utf-8"?>
<svg version="1.1" xmlns:xlink="http://www.w3.org/1999/xlink" width="12px" height="12px" viewBox="140 634.5  12 12" xmlns="http://www.w3.org/2000/svg">
  <path d="M 146 634.5  C 149.36 634.5  152 637.14  152 640.5  C 152 643.86  149.36 646.5  146 646.5  C 142.64 646.5  140 643.86  140 640.5  C 140 637.14  142.64 634.5  146 634.5  Z " fill-rule="nonzero" fill="#f0f0f0" stroke="none" />
  <path d="M 146 635  C 149.08 635  151.5 637.42  151.5 640.5  C 151.5 643.58  149.08 646  146 646  C 142.92 646  140.5 643.58  140.5 640.5  C 140.5 637.42  142.92 635  146 635  Z " stroke-width="1" stroke="#797979" fill="none" />
  <path d="M 146 643.5  C 144.32 643.5  143 642.18  143 640.5  C 143 638.82  144.32 637.5  146 637.5  C 147.68 637.5  149 638.82  149 640.5  C 149 642.18  147.68 643.5  146 643.5  " fill-rule="nonzero" fill="#797979" stroke="none" />
</svg>