<?xml version="1.0" encoding="utf-8"?>
<svg version="1.1" xmlns:xlink="http://www.w3.org/1999/xlink" width="12px" height="12px" viewBox="203 634.5  12 12" xmlns="http://www.w3.org/2000/svg">
  <path d="M 209 634.5  C 212.36 634.5  215 637.14  215 640.5  C 215 643.86  212.36 646.5  209 646.5  C 205.64 646.5  203 643.86  203 640.5  C 203 637.14  205.64 634.5  209 634.5  Z " fill-rule="nonzero" fill="#ffffff" stroke="none" />
  <path d="M 209 635  C 212.08 635  214.5 637.42  214.5 640.5  C 214.5 643.58  212.08 646  209 646  C 205.92 646  203.5 643.58  203.5 640.5  C 203.5 637.42  205.92 635  209 635  Z " stroke-width="1" stroke="#797979" fill="none" />
  <path d="M 209 643.5  C 207.32 643.5  206 642.18  206 640.5  C 206 638.82  207.32 637.5  209 637.5  C 210.68 637.5  212 638.82  212 640.5  C 212 642.18  210.68 643.5  209 643.5  " fill-rule="nonzero" fill="#797979" stroke="none" />
</svg>