<?xml version="1.0" encoding="utf-8"?>
<svg version="1.1" xmlns:xlink="http://www.w3.org/1999/xlink" width="137px" height="197px" xmlns="http://www.w3.org/2000/svg">
  <g transform="matrix(1 0 0 1 -135 -373 )">
    <path d="M 135 373  L 272 373  L 272 570  L 135 570  L 135 373  " fill-rule="nonzero" fill="#cccccc" stroke="none" />
    <path d="M 145 383  L 262 383  L 262 560  L 145 560  L 145 383  " fill-rule="nonzero" fill="#ffffff" stroke="none" />
    <path d="M 216.515 423.1  C 210.761 423.1  206.24 418.579  206.24 412.825  C 206.24 407.071  210.761 402.55  216.515 402.55  C 222.269 402.55  226.79 407.071  226.79 412.825  C 226.79 418.579  222.269 423.1  216.515 423.1  " fill-rule="nonzero" fill="#cccccc" stroke="none" />
    <path d="M 149 557  L 149 463.5  L 176.5 421  L 215 455  L 237 446.5  L 259 455  L 259 557  L 149 557  " fill-rule="nonzero" fill="#169bd5" stroke="none" />
  </g>
</svg>