<?xml version="1.0" encoding="utf-8"?>
<svg version="1.1" xmlns:xlink="http://www.w3.org/1999/xlink" width="12px" height="12px" viewBox="502 332.5  12 12" xmlns="http://www.w3.org/2000/svg">
  <path d="M 508 332.5  C 511.36 332.5  514 335.14  514 338.5  C 514 341.86  511.36 344.5  508 344.5  C 504.64 344.5  502 341.86  502 338.5  C 502 335.14  504.64 332.5  508 332.5  Z " fill-rule="nonzero" fill="#ffffff" stroke="none" />
  <path d="M 508 333  C 511.08 333  513.5 335.42  513.5 338.5  C 513.5 341.58  511.08 344  508 344  C 504.92 344  502.5 341.58  502.5 338.5  C 502.5 335.42  504.92 333  508 333  Z " stroke-width="1" stroke="#797979" fill="none" />
  <path d="M 508 341.5  C 506.32 341.5  505 340.18  505 338.5  C 505 336.82  506.32 335.5  508 335.5  C 509.68 335.5  511 336.82  511 338.5  C 511 340.18  509.68 341.5  508 341.5  " fill-rule="nonzero" fill="#797979" stroke="none" />
</svg>