<?xml version="1.0" encoding="utf-8"?>
<svg version="1.1" xmlns:xlink="http://www.w3.org/1999/xlink" width="12px" height="12px" viewBox="637 332.5  12 12" xmlns="http://www.w3.org/2000/svg">
  <path d="M 643 332.5  C 646.36 332.5  649 335.14  649 338.5  C 649 341.86  646.36 344.5  643 344.5  C 639.64 344.5  637 341.86  637 338.5  C 637 335.14  639.64 332.5  643 332.5  Z " fill-rule="nonzero" fill="#ffffff" stroke="none" />
  <path d="M 643 333  C 646.08 333  648.5 335.42  648.5 338.5  C 648.5 341.58  646.08 344  643 344  C 639.92 344  637.5 341.58  637.5 338.5  C 637.5 335.42  639.92 333  643 333  Z " stroke-width="1" stroke="#797979" fill="none" />
  <path d="M 643 341.5  C 641.32 341.5  640 340.18  640 338.5  C 640 336.82  641.32 335.5  643 335.5  C 644.68 335.5  646 336.82  646 338.5  C 646 340.18  644.68 341.5  643 341.5  " fill-rule="nonzero" fill="#797979" stroke="none" />
</svg>