<?xml version="1.0" encoding="utf-8"?>
<svg version="1.1" xmlns:xlink="http://www.w3.org/1999/xlink" width="146px" height="146px" xmlns="http://www.w3.org/2000/svg">
  <g transform="matrix(1 0 0 1 -1053 -106 )">
    <path d="M 1053 106  L 1199 106  L 1199 252  L 1053 252  L 1053 106  " fill-rule="nonzero" fill="#cccccc" stroke="none" />
    <path d="M 1063 116  L 1189 116  L 1189 242  L 1063 242  L 1063 116  " fill-rule="nonzero" fill="#ffffff" stroke="none" />
    <path d="M 1139.87 149.8  C 1133.738 149.8  1128.92 144.982  1128.92 138.85  C 1128.92 132.718  1133.738 127.9  1139.87 127.9  C 1146.002 127.9  1150.82 132.718  1150.82 138.85  C 1150.82 144.982  1146.002 149.8  1139.87 149.8  " fill-rule="nonzero" fill="#cccccc" stroke="none" />
    <path d="M 1067 239  L 1067 173.55  L 1096.75 143.8  L 1138.4 167.6  L 1162.2 161.65  L 1186 167.6  L 1186 239  L 1067 239  " fill-rule="nonzero" fill="#169bd5" stroke="none" />
  </g>
</svg>