<?xml version="1.0" encoding="utf-8"?>
<svg version="1.1" xmlns:xlink="http://www.w3.org/1999/xlink" width="140px" height="194px" xmlns="http://www.w3.org/2000/svg">
  <g transform="matrix(1 0 0 1 -1046 -774 )">
    <path d="M 1046 774  L 1186 774  L 1186 968  L 1046 968  L 1046 774  " fill-rule="nonzero" fill="#cccccc" stroke="none" />
    <path d="M 1056 784  L 1176 784  L 1176 958  L 1056 958  L 1056 784  " fill-rule="nonzero" fill="#ffffff" stroke="none" />
    <path d="M 1129.3 824.1  C 1123.42 824.1  1118.8 819.48  1118.8 813.6  C 1118.8 807.72  1123.42 803.1  1129.3 803.1  C 1135.18 803.1  1139.8 807.72  1139.8 813.6  C 1139.8 819.48  1135.18 824.1  1129.3 824.1  " fill-rule="nonzero" fill="#cccccc" stroke="none" />
    <path d="M 1060 955  L 1060 863.15  L 1088.25 821.4  L 1127.8 854.8  L 1150.4 846.45  L 1173 854.8  L 1173 955  L 1060 955  " fill-rule="nonzero" fill="#169bd5" stroke="none" />
  </g>
</svg>