<?xml version="1.0" encoding="utf-8"?>
<svg version="1.1" xmlns:xlink="http://www.w3.org/1999/xlink" width="170px" height="180px" xmlns="http://www.w3.org/2000/svg">
  <g transform="matrix(1 0 0 1 -1046 -991 )">
    <path d="M 1046 991  L 1216 991  L 1216 1171  L 1046 1171  L 1046 991  " fill-rule="nonzero" fill="#cccccc" stroke="none" />
    <path d="M 1058 1003  L 1204 1003  L 1204 1159  L 1058 1159  L 1058 1003  " fill-rule="nonzero" fill="#ffffff" stroke="none" />
    <path d="M 1147.15 1043.5  C 1140.01 1043.5  1134.4 1037.89  1134.4 1030.75  C 1134.4 1023.61  1140.01 1018  1147.15 1018  C 1154.29 1018  1159.9 1023.61  1159.9 1030.75  C 1159.9 1037.89  1154.29 1043.5  1147.15 1043.5  " fill-rule="nonzero" fill="#cccccc" stroke="none" />
    <path d="M 1063 1155  L 1063 1074.15  L 1097.25 1037.4  L 1145.2 1066.8  L 1172.6 1059.45  L 1200 1066.8  L 1200 1155  L 1063 1155  " fill-rule="nonzero" fill="#169bd5" stroke="none" />
  </g>
</svg>