<?xml version="1.0" encoding="utf-8"?>
<svg version="1.1" xmlns:xlink="http://www.w3.org/1999/xlink" width="12px" height="12px" viewBox="327 567.5  12 12" xmlns="http://www.w3.org/2000/svg">
  <path d="M 333 567.5  C 336.36 567.5  339 570.14  339 573.5  C 339 576.86  336.36 579.5  333 579.5  C 329.64 579.5  327 576.86  327 573.5  C 327 570.14  329.64 567.5  333 567.5  Z " fill-rule="nonzero" fill="#f0f0f0" stroke="none" />
  <path d="M 333 568  C 336.08 568  338.5 570.42  338.5 573.5  C 338.5 576.58  336.08 579  333 579  C 329.92 579  327.5 576.58  327.5 573.5  C 327.5 570.42  329.92 568  333 568  Z " stroke-width="1" stroke="#797979" fill="none" />
  <path d="M 333 576.5  C 331.32 576.5  330 575.18  330 573.5  C 330 571.82  331.32 570.5  333 570.5  C 334.68 570.5  336 571.82  336 573.5  C 336 575.18  334.68 576.5  333 576.5  " fill-rule="nonzero" fill="#797979" stroke="none" />
</svg>