<?xml version="1.0" encoding="utf-8"?>
<svg version="1.1" xmlns:xlink="http://www.w3.org/1999/xlink" width="12px" height="12px" viewBox="185 385.5  12 12" xmlns="http://www.w3.org/2000/svg">
  <path d="M 191 385.5  C 194.36 385.5  197 388.14  197 391.5  C 197 394.86  194.36 397.5  191 397.5  C 187.64 397.5  185 394.86  185 391.5  C 185 388.14  187.64 385.5  191 385.5  Z " fill-rule="nonzero" fill="#f0f0f0" stroke="none" />
  <path d="M 191 386  C 194.08 386  196.5 388.42  196.5 391.5  C 196.5 394.58  194.08 397  191 397  C 187.92 397  185.5 394.58  185.5 391.5  C 185.5 388.42  187.92 386  191 386  Z " stroke-width="1" stroke="#797979" fill="none" />
  <path d="M 191 394.5  C 189.32 394.5  188 393.18  188 391.5  C 188 389.82  189.32 388.5  191 388.5  C 192.68 388.5  194 389.82  194 391.5  C 194 393.18  192.68 394.5  191 394.5  " fill-rule="nonzero" fill="#797979" stroke="none" />
</svg>