<?xml version="1.0" encoding="utf-8"?>
<svg version="1.1" xmlns:xlink="http://www.w3.org/1999/xlink" width="12px" height="12px" viewBox="49 385.5  12 12" xmlns="http://www.w3.org/2000/svg">
  <path d="M 55 385.5  C 58.36 385.5  61 388.14  61 391.5  C 61 394.86  58.36 397.5  55 397.5  C 51.64 397.5  49 394.86  49 391.5  C 49 388.14  51.64 385.5  55 385.5  Z " fill-rule="nonzero" fill="#ffffff" stroke="none" />
  <path d="M 55 386  C 58.08 386  60.5 388.42  60.5 391.5  C 60.5 394.58  58.08 397  55 397  C 51.92 397  49.5 394.58  49.5 391.5  C 49.5 388.42  51.92 386  55 386  Z " stroke-width="1" stroke="#797979" fill="none" />
  <path d="M 55 394.5  C 53.32 394.5  52 393.18  52 391.5  C 52 389.82  53.32 388.5  55 388.5  C 56.68 388.5  58 389.82  58 391.5  C 58 393.18  56.68 394.5  55 394.5  " fill-rule="nonzero" fill="#797979" stroke="none" />
</svg>