<?xml version="1.0" encoding="utf-8"?>
<svg version="1.1" xmlns:xlink="http://www.w3.org/1999/xlink" width="12px" height="12px" viewBox="419 567.5  12 12" xmlns="http://www.w3.org/2000/svg">
  <path d="M 425 567.5  C 428.36 567.5  431 570.14  431 573.5  C 431 576.86  428.36 579.5  425 579.5  C 421.64 579.5  419 576.86  419 573.5  C 419 570.14  421.64 567.5  425 567.5  Z " fill-rule="nonzero" fill="#ffffff" stroke="none" />
  <path d="M 425 568  C 428.08 568  430.5 570.42  430.5 573.5  C 430.5 576.58  428.08 579  425 579  C 421.92 579  419.5 576.58  419.5 573.5  C 419.5 570.42  421.92 568  425 568  Z " stroke-width="1" stroke="#797979" fill="none" />
  <path d="M 425 576.5  C 423.32 576.5  422 575.18  422 573.5  C 422 571.82  423.32 570.5  425 570.5  C 426.68 570.5  428 571.82  428 573.5  C 428 575.18  426.68 576.5  425 576.5  " fill-rule="nonzero" fill="#797979" stroke="none" />
</svg>