<?xml version="1.0" encoding="utf-8"?>
<svg version="1.1" xmlns:xlink="http://www.w3.org/1999/xlink" width="12px" height="12px" viewBox="512 567.5  12 12" xmlns="http://www.w3.org/2000/svg">
  <path d="M 518 567.5  C 521.36 567.5  524 570.14  524 573.5  C 524 576.86  521.36 579.5  518 579.5  C 514.64 579.5  512 576.86  512 573.5  C 512 570.14  514.64 567.5  518 567.5  Z " fill-rule="nonzero" fill="#ffffff" stroke="none" />
  <path d="M 518 568  C 521.08 568  523.5 570.42  523.5 573.5  C 523.5 576.58  521.08 579  518 579  C 514.92 579  512.5 576.58  512.5 573.5  C 512.5 570.42  514.92 568  518 568  Z " stroke-width="1" stroke="#797979" fill="none" />
  <path d="M 518 576.5  C 516.32 576.5  515 575.18  515 573.5  C 515 571.82  516.32 570.5  518 570.5  C 519.68 570.5  521 571.82  521 573.5  C 521 575.18  519.68 576.5  518 576.5  " fill-rule="nonzero" fill="#797979" stroke="none" />
</svg>