<?xml version="1.0" encoding="utf-8"?>
<svg version="1.1" xmlns:xlink="http://www.w3.org/1999/xlink" width="12px" height="12px" viewBox="140 536.5  12 12" xmlns="http://www.w3.org/2000/svg">
  <path d="M 146 536.5  C 149.36 536.5  152 539.14  152 542.5  C 152 545.86  149.36 548.5  146 548.5  C 142.64 548.5  140 545.86  140 542.5  C 140 539.14  142.64 536.5  146 536.5  Z " fill-rule="nonzero" fill="#f0f0f0" stroke="none" />
  <path d="M 146 537  C 149.08 537  151.5 539.42  151.5 542.5  C 151.5 545.58  149.08 548  146 548  C 142.92 548  140.5 545.58  140.5 542.5  C 140.5 539.42  142.92 537  146 537  Z " stroke-width="1" stroke="#797979" fill="none" />
  <path d="M 146 545.5  C 144.32 545.5  143 544.18  143 542.5  C 143 540.82  144.32 539.5  146 539.5  C 147.68 539.5  149 540.82  149 542.5  C 149 544.18  147.68 545.5  146 545.5  " fill-rule="nonzero" fill="#797979" stroke="none" />
</svg>