<?xml version="1.0" encoding="utf-8"?>
<svg version="1.1" xmlns:xlink="http://www.w3.org/1999/xlink" width="12px" height="12px" viewBox="204 536.5  12 12" xmlns="http://www.w3.org/2000/svg">
  <path d="M 210 536.5  C 213.36 536.5  216 539.14  216 542.5  C 216 545.86  213.36 548.5  210 548.5  C 206.64 548.5  204 545.86  204 542.5  C 204 539.14  206.64 536.5  210 536.5  Z " fill-rule="nonzero" fill="#ffffff" stroke="none" />
  <path d="M 210 537  C 213.08 537  215.5 539.42  215.5 542.5  C 215.5 545.58  213.08 548  210 548  C 206.92 548  204.5 545.58  204.5 542.5  C 204.5 539.42  206.92 537  210 537  Z " stroke-width="1" stroke="#797979" fill="none" />
  <path d="M 210 545.5  C 208.32 545.5  207 544.18  207 542.5  C 207 540.82  208.32 539.5  210 539.5  C 211.68 539.5  213 540.82  213 542.5  C 213 544.18  211.68 545.5  210 545.5  " fill-rule="nonzero" fill="#797979" stroke="none" />
</svg>