<?xml version="1.0" encoding="utf-8"?>
<svg version="1.1" xmlns:xlink="http://www.w3.org/1999/xlink" width="12px" height="12px" viewBox="267 536.5  12 12" xmlns="http://www.w3.org/2000/svg">
  <path d="M 273 536.5  C 276.36 536.5  279 539.14  279 542.5  C 279 545.86  276.36 548.5  273 548.5  C 269.64 548.5  267 545.86  267 542.5  C 267 539.14  269.64 536.5  273 536.5  Z " fill-rule="nonzero" fill="#ffffff" stroke="none" />
  <path d="M 273 537  C 276.08 537  278.5 539.42  278.5 542.5  C 278.5 545.58  276.08 548  273 548  C 269.92 548  267.5 545.58  267.5 542.5  C 267.5 539.42  269.92 537  273 537  Z " stroke-width="1" stroke="#797979" fill="none" />
  <path d="M 273 545.5  C 271.32 545.5  270 544.18  270 542.5  C 270 540.82  271.32 539.5  273 539.5  C 274.68 539.5  276 540.82  276 542.5  C 276 544.18  274.68 545.5  273 545.5  " fill-rule="nonzero" fill="#797979" stroke="none" />
</svg>