<?xml version="1.0" encoding="utf-8"?>
<svg version="1.1" xmlns:xlink="http://www.w3.org/1999/xlink" width="12px" height="12px" viewBox="394 536.5  12 12" xmlns="http://www.w3.org/2000/svg">
  <path d="M 400 536.5  C 403.36 536.5  406 539.14  406 542.5  C 406 545.86  403.36 548.5  400 548.5  C 396.64 548.5  394 545.86  394 542.5  C 394 539.14  396.64 536.5  400 536.5  Z " fill-rule="nonzero" fill="#f0f0f0" stroke="none" />
  <path d="M 400 537  C 403.08 537  405.5 539.42  405.5 542.5  C 405.5 545.58  403.08 548  400 548  C 396.92 548  394.5 545.58  394.5 542.5  C 394.5 539.42  396.92 537  400 537  Z " stroke-width="1" stroke="#797979" fill="none" />
  <path d="M 400 545.5  C 398.32 545.5  397 544.18  397 542.5  C 397 540.82  398.32 539.5  400 539.5  C 401.68 539.5  403 540.82  403 542.5  C 403 544.18  401.68 545.5  400 545.5  " fill-rule="nonzero" fill="#797979" stroke="none" />
</svg>