<?xml version="1.0" encoding="utf-8"?>
<svg version="1.1" xmlns:xlink="http://www.w3.org/1999/xlink" width="12px" height="12px" viewBox="458 536.5  12 12" xmlns="http://www.w3.org/2000/svg">
  <path d="M 464 536.5  C 467.36 536.5  470 539.14  470 542.5  C 470 545.86  467.36 548.5  464 548.5  C 460.64 548.5  458 545.86  458 542.5  C 458 539.14  460.64 536.5  464 536.5  Z " fill-rule="nonzero" fill="#f0f0f0" stroke="none" />
  <path d="M 464 537  C 467.08 537  469.5 539.42  469.5 542.5  C 469.5 545.58  467.08 548  464 548  C 460.92 548  458.5 545.58  458.5 542.5  C 458.5 539.42  460.92 537  464 537  Z " stroke-width="1" stroke="#797979" fill="none" />
  <path d="M 464 545.5  C 462.32 545.5  461 544.18  461 542.5  C 461 540.82  462.32 539.5  464 539.5  C 465.68 539.5  467 540.82  467 542.5  C 467 544.18  465.68 545.5  464 545.5  " fill-rule="nonzero" fill="#797979" stroke="none" />
</svg>