<?xml version="1.0" encoding="utf-8"?>
<svg version="1.1" xmlns:xlink="http://www.w3.org/1999/xlink" width="12px" height="12px" viewBox="521 536.5  12 12" xmlns="http://www.w3.org/2000/svg">
  <path d="M 527 536.5  C 530.36 536.5  533 539.14  533 542.5  C 533 545.86  530.36 548.5  527 548.5  C 523.64 548.5  521 545.86  521 542.5  C 521 539.14  523.64 536.5  527 536.5  Z " fill-rule="nonzero" fill="#ffffff" stroke="none" />
  <path d="M 527 537  C 530.08 537  532.5 539.42  532.5 542.5  C 532.5 545.58  530.08 548  527 548  C 523.92 548  521.5 545.58  521.5 542.5  C 521.5 539.42  523.92 537  527 537  Z " stroke-width="1" stroke="#797979" fill="none" />
  <path d="M 527 545.5  C 525.32 545.5  524 544.18  524 542.5  C 524 540.82  525.32 539.5  527 539.5  C 528.68 539.5  530 540.82  530 542.5  C 530 544.18  528.68 545.5  527 545.5  " fill-rule="nonzero" fill="#797979" stroke="none" />
</svg>