<?xml version="1.0" encoding="utf-8"?>
<svg version="1.1" xmlns:xlink="http://www.w3.org/1999/xlink" width="12px" height="12px" viewBox="585 536.5  12 12" xmlns="http://www.w3.org/2000/svg">
  <path d="M 591 536.5  C 594.36 536.5  597 539.14  597 542.5  C 597 545.86  594.36 548.5  591 548.5  C 587.64 548.5  585 545.86  585 542.5  C 585 539.14  587.64 536.5  591 536.5  Z " fill-rule="nonzero" fill="#ffffff" stroke="none" />
  <path d="M 591 537  C 594.08 537  596.5 539.42  596.5 542.5  C 596.5 545.58  594.08 548  591 548  C 587.92 548  585.5 545.58  585.5 542.5  C 585.5 539.42  587.92 537  591 537  Z " stroke-width="1" stroke="#797979" fill="none" />
  <path d="M 591 545.5  C 589.32 545.5  588 544.18  588 542.5  C 588 540.82  589.32 539.5  591 539.5  C 592.68 539.5  594 540.82  594 542.5  C 594 544.18  592.68 545.5  591 545.5  " fill-rule="nonzero" fill="#797979" stroke="none" />
</svg>