<?xml version="1.0" encoding="utf-8"?>
<svg version="1.1" xmlns:xlink="http://www.w3.org/1999/xlink" width="12px" height="12px" viewBox="140 566.5  12 12" xmlns="http://www.w3.org/2000/svg">
  <path d="M 146 566.5  C 149.36 566.5  152 569.14  152 572.5  C 152 575.86  149.36 578.5  146 578.5  C 142.64 578.5  140 575.86  140 572.5  C 140 569.14  142.64 566.5  146 566.5  Z " fill-rule="nonzero" fill="#ffffff" stroke="none" />
  <path d="M 146 567  C 149.08 567  151.5 569.42  151.5 572.5  C 151.5 575.58  149.08 578  146 578  C 142.92 578  140.5 575.58  140.5 572.5  C 140.5 569.42  142.92 567  146 567  Z " stroke-width="1" stroke="#797979" fill="none" />
  <path d="M 146 575.5  C 144.32 575.5  143 574.18  143 572.5  C 143 570.82  144.32 569.5  146 569.5  C 147.68 569.5  149 570.82  149 572.5  C 149 574.18  147.68 575.5  146 575.5  " fill-rule="nonzero" fill="#797979" stroke="none" />
</svg>