<?xml version="1.0" encoding="utf-8"?>
<svg version="1.1" xmlns:xlink="http://www.w3.org/1999/xlink" width="12px" height="12px" viewBox="204 566.5  12 12" xmlns="http://www.w3.org/2000/svg">
  <path d="M 210 566.5  C 213.36 566.5  216 569.14  216 572.5  C 216 575.86  213.36 578.5  210 578.5  C 206.64 578.5  204 575.86  204 572.5  C 204 569.14  206.64 566.5  210 566.5  Z " fill-rule="nonzero" fill="#f0f0f0" stroke="none" />
  <path d="M 210 567  C 213.08 567  215.5 569.42  215.5 572.5  C 215.5 575.58  213.08 578  210 578  C 206.92 578  204.5 575.58  204.5 572.5  C 204.5 569.42  206.92 567  210 567  Z " stroke-width="1" stroke="#797979" fill="none" />
  <path d="M 210 575.5  C 208.32 575.5  207 574.18  207 572.5  C 207 570.82  208.32 569.5  210 569.5  C 211.68 569.5  213 570.82  213 572.5  C 213 574.18  211.68 575.5  210 575.5  " fill-rule="nonzero" fill="#797979" stroke="none" />
</svg>