<?xml version="1.0" encoding="utf-8"?>
<svg version="1.1" xmlns:xlink="http://www.w3.org/1999/xlink" width="12px" height="12px" viewBox="267 566.5  12 12" xmlns="http://www.w3.org/2000/svg">
  <path d="M 273 566.5  C 276.36 566.5  279 569.14  279 572.5  C 279 575.86  276.36 578.5  273 578.5  C 269.64 578.5  267 575.86  267 572.5  C 267 569.14  269.64 566.5  273 566.5  Z " fill-rule="nonzero" fill="#f0f0f0" stroke="none" />
  <path d="M 273 567  C 276.08 567  278.5 569.42  278.5 572.5  C 278.5 575.58  276.08 578  273 578  C 269.92 578  267.5 575.58  267.5 572.5  C 267.5 569.42  269.92 567  273 567  Z " stroke-width="1" stroke="#797979" fill="none" />
  <path d="M 273 575.5  C 271.32 575.5  270 574.18  270 572.5  C 270 570.82  271.32 569.5  273 569.5  C 274.68 569.5  276 570.82  276 572.5  C 276 574.18  274.68 575.5  273 575.5  " fill-rule="nonzero" fill="#797979" stroke="none" />
</svg>