<?xml version="1.0" encoding="utf-8"?>
<svg version="1.1" xmlns:xlink="http://www.w3.org/1999/xlink" width="12px" height="12px" viewBox="646 536.5  12 12" xmlns="http://www.w3.org/2000/svg">
  <path d="M 652 536.5  C 655.36 536.5  658 539.14  658 542.5  C 658 545.86  655.36 548.5  652 548.5  C 648.64 548.5  646 545.86  646 542.5  C 646 539.14  648.64 536.5  652 536.5  Z " fill-rule="nonzero" fill="#ffffff" stroke="none" />
  <path d="M 652 537  C 655.08 537  657.5 539.42  657.5 542.5  C 657.5 545.58  655.08 548  652 548  C 648.92 548  646.5 545.58  646.5 542.5  C 646.5 539.42  648.92 537  652 537  Z " stroke-width="1" stroke="#797979" fill="none" />
  <path d="M 652 545.5  C 650.32 545.5  649 544.18  649 542.5  C 649 540.82  650.32 539.5  652 539.5  C 653.68 539.5  655 540.82  655 542.5  C 655 544.18  653.68 545.5  652 545.5  " fill-rule="nonzero" fill="#797979" stroke="none" />
</svg>