<?xml version="1.0" encoding="utf-8"?>
<svg version="1.1" xmlns:xlink="http://www.w3.org/1999/xlink" width="12px" height="12px" viewBox="710 536.5  12 12" xmlns="http://www.w3.org/2000/svg">
  <path d="M 716 536.5  C 719.36 536.5  722 539.14  722 542.5  C 722 545.86  719.36 548.5  716 548.5  C 712.64 548.5  710 545.86  710 542.5  C 710 539.14  712.64 536.5  716 536.5  Z " fill-rule="nonzero" fill="#ffffff" stroke="none" />
  <path d="M 716 537  C 719.08 537  721.5 539.42  721.5 542.5  C 721.5 545.58  719.08 548  716 548  C 712.92 548  710.5 545.58  710.5 542.5  C 710.5 539.42  712.92 537  716 537  Z " stroke-width="1" stroke="#797979" fill="none" />
  <path d="M 716 545.5  C 714.32 545.5  713 544.18  713 542.5  C 713 540.82  714.32 539.5  716 539.5  C 717.68 539.5  719 540.82  719 542.5  C 719 544.18  717.68 545.5  716 545.5  " fill-rule="nonzero" fill="#797979" stroke="none" />
</svg>