<?xml version="1.0" encoding="utf-8"?>
<svg version="1.1" xmlns:xlink="http://www.w3.org/1999/xlink" width="12px" height="12px" viewBox="773 536.5  12 12" xmlns="http://www.w3.org/2000/svg">
  <path d="M 779 536.5  C 782.36 536.5  785 539.14  785 542.5  C 785 545.86  782.36 548.5  779 548.5  C 775.64 548.5  773 545.86  773 542.5  C 773 539.14  775.64 536.5  779 536.5  Z " fill-rule="nonzero" fill="#f0f0f0" stroke="none" />
  <path d="M 779 537  C 782.08 537  784.5 539.42  784.5 542.5  C 784.5 545.58  782.08 548  779 548  C 775.92 548  773.5 545.58  773.5 542.5  C 773.5 539.42  775.92 537  779 537  Z " stroke-width="1" stroke="#797979" fill="none" />
  <path d="M 779 545.5  C 777.32 545.5  776 544.18  776 542.5  C 776 540.82  777.32 539.5  779 539.5  C 780.68 539.5  782 540.82  782 542.5  C 782 544.18  780.68 545.5  779 545.5  " fill-rule="nonzero" fill="#797979" stroke="none" />
</svg>