<?xml version="1.0" encoding="utf-8"?>
<svg version="1.1" xmlns:xlink="http://www.w3.org/1999/xlink" width="12px" height="12px" viewBox="837 536.5  12 12" xmlns="http://www.w3.org/2000/svg">
  <path d="M 843 536.5  C 846.36 536.5  849 539.14  849 542.5  C 849 545.86  846.36 548.5  843 548.5  C 839.64 548.5  837 545.86  837 542.5  C 837 539.14  839.64 536.5  843 536.5  Z " fill-rule="nonzero" fill="#ffffff" stroke="none" />
  <path d="M 843 537  C 846.08 537  848.5 539.42  848.5 542.5  C 848.5 545.58  846.08 548  843 548  C 839.92 548  837.5 545.58  837.5 542.5  C 837.5 539.42  839.92 537  843 537  Z " stroke-width="1" stroke="#797979" fill="none" />
  <path d="M 843 545.5  C 841.32 545.5  840 544.18  840 542.5  C 840 540.82  841.32 539.5  843 539.5  C 844.68 539.5  846 540.82  846 542.5  C 846 544.18  844.68 545.5  843 545.5  " fill-rule="nonzero" fill="#797979" stroke="none" />
</svg>