<?xml version="1.0" encoding="utf-8"?>
<svg version="1.1" xmlns:xlink="http://www.w3.org/1999/xlink" width="12px" height="12px" viewBox="394 566.5  12 12" xmlns="http://www.w3.org/2000/svg">
  <path d="M 400 566.5  C 403.36 566.5  406 569.14  406 572.5  C 406 575.86  403.36 578.5  400 578.5  C 396.64 578.5  394 575.86  394 572.5  C 394 569.14  396.64 566.5  400 566.5  Z " fill-rule="nonzero" fill="#ffffff" stroke="none" />
  <path d="M 400 567  C 403.08 567  405.5 569.42  405.5 572.5  C 405.5 575.58  403.08 578  400 578  C 396.92 578  394.5 575.58  394.5 572.5  C 394.5 569.42  396.92 567  400 567  Z " stroke-width="1" stroke="#797979" fill="none" />
  <path d="M 400 575.5  C 398.32 575.5  397 574.18  397 572.5  C 397 570.82  398.32 569.5  400 569.5  C 401.68 569.5  403 570.82  403 572.5  C 403 574.18  401.68 575.5  400 575.5  " fill-rule="nonzero" fill="#797979" stroke="none" />
</svg>