<?xml version="1.0" encoding="utf-8"?>
<svg version="1.1" xmlns:xlink="http://www.w3.org/1999/xlink" width="12px" height="12px" viewBox="457 566.5  12 12" xmlns="http://www.w3.org/2000/svg">
  <path d="M 463 566.5  C 466.36 566.5  469 569.14  469 572.5  C 469 575.86  466.36 578.5  463 578.5  C 459.64 578.5  457 575.86  457 572.5  C 457 569.14  459.64 566.5  463 566.5  Z " fill-rule="nonzero" fill="#f0f0f0" stroke="none" />
  <path d="M 463 567  C 466.08 567  468.5 569.42  468.5 572.5  C 468.5 575.58  466.08 578  463 578  C 459.92 578  457.5 575.58  457.5 572.5  C 457.5 569.42  459.92 567  463 567  Z " stroke-width="1" stroke="#797979" fill="none" />
  <path d="M 463 575.5  C 461.32 575.5  460 574.18  460 572.5  C 460 570.82  461.32 569.5  463 569.5  C 464.68 569.5  466 570.82  466 572.5  C 466 574.18  464.68 575.5  463 575.5  " fill-rule="nonzero" fill="#797979" stroke="none" />
</svg>