<?xml version="1.0" encoding="utf-8"?>
<svg version="1.1" xmlns:xlink="http://www.w3.org/1999/xlink" width="12px" height="12px" viewBox="521 566.5  12 12" xmlns="http://www.w3.org/2000/svg">
  <path d="M 527 566.5  C 530.36 566.5  533 569.14  533 572.5  C 533 575.86  530.36 578.5  527 578.5  C 523.64 578.5  521 575.86  521 572.5  C 521 569.14  523.64 566.5  527 566.5  Z " fill-rule="nonzero" fill="#ffffff" stroke="none" />
  <path d="M 527 567  C 530.08 567  532.5 569.42  532.5 572.5  C 532.5 575.58  530.08 578  527 578  C 523.92 578  521.5 575.58  521.5 572.5  C 521.5 569.42  523.92 567  527 567  Z " stroke-width="1" stroke="#797979" fill="none" />
  <path d="M 527 575.5  C 525.32 575.5  524 574.18  524 572.5  C 524 570.82  525.32 569.5  527 569.5  C 528.68 569.5  530 570.82  530 572.5  C 530 574.18  528.68 575.5  527 575.5  " fill-rule="nonzero" fill="#797979" stroke="none" />
</svg>