<?xml version="1.0" encoding="utf-8"?>
<svg version="1.1" xmlns:xlink="http://www.w3.org/1999/xlink" width="65px" height="65px" xmlns="http://www.w3.org/2000/svg">
  <g transform="matrix(1 0 0 1 -514 -143 )">
    <path d="M 546.5 143  C 564.7 143  579 157.3  579 175.5  C 579 193.7  564.7 208  546.5 208  C 528.3 208  514 193.7  514 175.5  C 514 157.3  528.3 143  546.5 143  Z " fill-rule="nonzero" fill="#ffffff" stroke="none" />
    <path d="M 546.5 143.5  C 564.42 143.5  578.5 157.58  578.5 175.5  C 578.5 193.42  564.42 207.5  546.5 207.5  C 528.58 207.5  514.5 193.42  514.5 175.5  C 514.5 157.58  528.58 143.5  546.5 143.5  Z " stroke-width="1" stroke="#797979" fill="none" />
  </g>
</svg>