<?xml version="1.0" encoding="utf-8"?>
<svg version="1.1" xmlns:xlink="http://www.w3.org/1999/xlink" width="80px" height="80px" xmlns="http://www.w3.org/2000/svg">
  <g transform="matrix(1 0 0 1 -77 -137 )">
    <path d="M 117 137  C 139.4 137  157 154.6  157 177  C 157 199.4  139.4 217  117 217  C 94.6 217  77 199.4  77 177  C 77 154.6  94.6 137  117 137  Z " fill-rule="nonzero" fill="#ffffff" stroke="none" />
    <path d="M 117 137.5  C 139.12 137.5  156.5 154.88  156.5 177  C 156.5 199.12  139.12 216.5  117 216.5  C 94.88 216.5  77.5 199.12  77.5 177  C 77.5 154.88  94.88 137.5  117 137.5  Z " stroke-width="1" stroke="#797979" fill="none" />
  </g>
</svg>