<?xml version="1.0" encoding="utf-8"?>
<svg version="1.1" xmlns:xlink="http://www.w3.org/1999/xlink" width="84px" height="103px" xmlns="http://www.w3.org/2000/svg">
  <g transform="matrix(1 0 0 1 -526 -121 )">
    <path d="M 526 121  L 610 121  L 610 224  L 526 224  L 526 121  " fill-rule="nonzero" fill="#cccccc" stroke="none" />
    <path d="M 532 127  L 604 127  L 604 218  L 532 218  L 532 127  " fill-rule="nonzero" fill="#ffffff" stroke="none" />
    <path d="M 575.98 149.05  C 572.452 149.05  569.68 146.278  569.68 142.75  C 569.68 139.222  572.452 136.45  575.98 136.45  C 579.508 136.45  582.28 139.222  582.28 142.75  C 582.28 146.278  579.508 149.05  575.98 149.05  " fill-rule="nonzero" fill="#cccccc" stroke="none" />
    <path d="M 534 216  L 534 168.15  L 551 146.4  L 574.8 163.8  L 588.4 159.45  L 602 163.8  L 602 216  L 534 216  " fill-rule="nonzero" fill="#169bd5" stroke="none" />
  </g>
</svg>